<?xml version="1.0" encoding="utf-8"?>
<!-- Generator: Adobe Illustrator 19.0.1, SVG Export Plug-In . SVG Version: 6.00 Build 0)  -->
<svg version="1.1" class="svg-icon icon-pinterest" xmlns="http://www.w3.org/2000/svg" xmlns:xlink="http://www.w3.org/1999/xlink" x="0px" y="0px"
	 viewBox="0 0 50 50" style="enable-background:new 0 0 50 50;fill:#a41d23;" xml:space="preserve">
<path d="M25,0C11.2,0,0,11.2,0,25c0,10.6,6.6,19.6,15.9,23.3c-0.2-2-0.4-5,0.1-7.2c0.5-2,2.9-12.4,2.9-12.4s-0.7-1.5-0.7-3.7
	c0-3.5,2-6.1,4.5-6.1c2.1,0,3.2,1.6,3.2,3.5c0,2.1-1.4,5.4-2.1,8.3c-0.6,2.5,1.2,4.5,3.7,4.5c4.4,0,7.9-4.7,7.9-11.4
	c0-6-4.3-10.2-10.4-10.2c-7.1,0-11.3,5.3-11.3,10.8c0,2.1,0.8,4.5,1.9,5.7c0.2,0.2,0.2,0.5,0.2,0.7c-0.2,0.8-0.6,2.5-0.7,2.8
	c-0.1,0.5-0.4,0.6-0.8,0.3C11,32.6,9,28.1,9,24.4c0-7.9,5.7-15.1,16.5-15.1c8.7,0,15.4,6.2,15.4,14.4c0,8.6-5.4,15.6-13,15.6
	c-2.5,0-4.9-1.3-5.7-2.9c0,0-1.3,4.8-1.6,5.9c-0.6,2.2-2.1,4.9-3.1,6.6c2.3,0.7,4.8,1.1,7.4,1.1c13.8,0,25-11.2,25-25
	C50,11.2,38.8,0,25,0z"/>
</svg>
